
<svg xmlns="http://www.w3.org/2000/svg" version="1.1" xmlns:xlink="http://www.w3.org/1999/xlink" preserveAspectRatio="none" x="0px" y="0px" width="1000px" height="1000px" viewBox="0 0 1000 1000">
<defs>
<linearGradient id="Gradient_1" gradientUnits="userSpaceOnUse" x1="500.0375" y1="6.374999999999986" x2="499.9625" y2="195.72500000000002" spreadMethod="pad">
<stop  offset="0%" stop-color="#4E3CAA"/>

<stop  offset="100%" stop-color="#794EE3"/>
</linearGradient>

<g id="Layer0_0_FILL">
<path fill="url(#Gradient_1)" stroke="none" d="
M 602.75 92.85
Q 601.95 79.85 591.65 85.85
L 516.1 129.5
Q 506.2 136.15 506.05 152.35
L 506.05 169.4
Q 505.2 188.9 503.25 194.75 553.85 163.846484375 573.45 153.75 593.05 143.701171875 611.3 133.1 611.55 133.15 611.8 133.1 610.75 133.25 610.05 131.85 605.8 123.4 602.75 92.85
M 495.15 16.05
L 495.05 16.15 403.25 69.1 500 125.05 596.9 69.1 504.9 16.05
Q 499.85 13.55 495.15 16.05
M 494.1 169.4
L 494.1 151.3
Q 493.4 134.9 483.8 129.4
L 407.8 85.5
Q 398 80.8 397.3 94.6 395.15 123.85 389.8 132.2 419.5181640625 145.187109375 448.05 165.7 476.5818359375 186.262890625 497.65 196.45 495.05 192.4 494.1 169.4 Z"/>

<path fill="#FFFFFF" stroke="none" d="
M 591.65 85.85
Q 601.95 79.85 602.75 92.85 605.8 123.4 610.05 131.85 610.75 133.25 611.8 133.1 612.275 132.875 612.75 132.65 613.1 132.3 613.65 131.75 613.9 131.4 614.25 130.9 614.6 129.95 614.7 128.8
L 614.7 69.05
Q 614.7 68.5 614.6 68 614.4 66.95 613.8 66
L 613.65 65.8
Q 613.3 65.1 612.7 64.65 612.4 64.5 612.25 64.3 612 64.15 611.7 63.95
L 503 1.25
Q 501.6 0.45 500 0.45 498.45 0.45 497.05 1.25
L 388.85 63.7
Q 388.6 63.9 388.35 63.95
L 387.9 64.25
Q 387.3 64.65 386.95 65.2 385.9 66.35 385.55 67.7 385.45 68.15 385.35 68.6 385.35 68.95 385.35 69.3 385.35 69.45 385.35 69.65
L 385.35 128.7
Q 385.45 129.95 385.95 131 387.8 133.95 389.8 132.2 395.15 123.85 397.3 94.6 398 80.8 407.8 85.5
L 483.8 129.4
Q 493.4 134.9 494.1 151.3
L 494.1 169.4
Q 495.05 192.4 497.65 196.45 497.95 196.85 498.3 197.05
L 498.45 197.15
Q 498.55 197.15 498.65 197.15
L 499.25 197.3 500 197.3
Q 500.9 197.3 501.7 197.15
L 501.75 197.15
Q 502.4 196.8 503 195.45 503.15 195.15 503.25 194.75 505.2 188.9 506.05 169.4
L 506.05 152.35
Q 506.2 136.15 516.1 129.5
L 591.65 85.85
M 495.05 16.15
L 495.15 16.05
Q 499.85 13.55 504.9 16.05
L 596.9 69.1 500 125.05 403.25 69.1 495.05 16.15 Z"/>
</g>
</defs>

<g transform="matrix( 4.0941619873046875, 0, 0, 4.0941619873046875, -1547.05,95.3) ">
<use xlink:href="#Layer0_0_FILL"/>
</g>
</svg>
