<svg id="Layer_1" viewBox="0 0 24 24" xmlns="http://www.w3.org/2000/svg" data-name="Layer 1" fill="#ffffff"><path d="m1.09 6.296c.275-2.01.581-3.412.594-3.47.125-.572.572-1.018 1.144-1.144.059-.013 1.46-.318 3.47-.593.815-.112 1.577.462 1.689 1.283s-.462 1.577-1.283 1.689c-.919.125-1.708.259-2.277.363-.104.568-.238 1.358-.363 2.277-.109.825-.885 1.398-1.689 1.283-.821-.112-1.395-.869-1.283-1.689zm5.613 13.641c-.919-.125-1.708-.259-2.277-.363-.104-.569-.238-1.358-.363-2.277-.112-.821-.871-1.396-1.689-1.283-.821.112-1.395.869-1.283 1.689.275 2.01.581 3.412.594 3.47.125.571.572 1.018 1.143 1.143.059.013 1.46.319 3.47.594.804.114 1.581-.458 1.689-1.283.112-.821-.462-1.577-1.283-1.689zm14.924-3.924c-.828-.114-1.577.463-1.689 1.283-.125.919-.259 1.708-.363 2.277-.568.104-1.358.238-2.277.363-.82.112-1.396.869-1.283 1.689.108.825.885 1.398 1.689 1.283 2.01-.275 3.412-.581 3.471-.594.571-.125 1.018-.572 1.143-1.143.013-.059.319-1.46.594-3.47.112-.821-.463-1.577-1.283-1.689zm-4.33-11.951c.919.125 1.709.259 2.277.363.104.568.238 1.358.363 2.277.108.825.885 1.398 1.689 1.283.82-.112 1.396-.869 1.283-1.689-.274-2.01-.581-3.412-.594-3.47-.125-.572-.572-1.018-1.144-1.144-.059-.013-1.46-.318-3.47-.593-.827-.113-1.577.462-1.689 1.283s.463 1.577 1.283 1.689zm-14.797 9.438h19c.828 0 1.5-.671 1.5-1.5s-.672-1.5-1.5-1.5h-19c-.829 0-1.5.671-1.5 1.5s.671 1.5 1.5 1.5z"/></svg>