
<svg xmlns="http://www.w3.org/2000/svg" version="1.1" xmlns:xlink="http://www.w3.org/1999/xlink" preserveAspectRatio="none" x="0px" y="0px" width="1000px" height="341px" viewBox="0 0 1000 341">
<defs>
<g id="Layer0_0_FILL">
<path fill="#000000" stroke="none" d="
M 375.7 461.6
L 365.15 461.6 365.15 528.8 375.7 528.8 375.7 461.6
M 416.75 461.6
L 407.3 461.6 407.3 501.85 407.1 501.85 396.85 461.6 383.6 461.6 383.6 528.8 393 528.8 393 479.7 393.2 479.7 405.85 528.8 416.75 528.8 416.75 461.6
M 438.7 460.65
Q 431 460.65 427 465 422.95 469.35 422.95 477.35 422.95 483.2 425.55 487.9 425.9923828125 488.6828125 426.55 489.5 427.40390625 490.758984375 428.5 492.1 429.2021484375 492.9099609375 429.95 493.75 430.708203125 494.53671875 431.5 495.35 431.959765625 495.790234375 432.4 496.2 432.49921875 496.303515625 432.55 496.35 433.3712890625 497.155078125 434.25 497.95 434.4533203125 498.1244140625 434.65 498.3 435.059765625 498.6546875 435.45 499 440.0037109375 503.0521484375 441.8 506 443.7 509.2 443.7 513.45 443.7 517 442.3 518.6 440.9 520.2 438.25 520.2 432.75 520.2 432.75 513.6
L 432.75 509 422.75 509 422.75 512.85
Q 422.75 521 426.7 525.4 430.65 529.75 438.3 529.75 446.1 529.75 450.2 525.35 454.25 520.95 454.25 512.7 454.25 506.35 451.8 501.6 450.8435546875 499.855859375 449.3 497.95 448.3095703125 496.6857421875 447.05 495.35 446.30390625 494.5623046875 445.45 493.75 444.6416015625 492.9375 443.7 492.1 443.3138671875 491.7345703125 442.9 491.35 442.7720703125 491.257421875 442.65 491.15 441.669921875 490.301953125 440.8 489.5 440.36171875 489.0939453125 439.95 488.7 436.8822265625 485.74140625 435.45 483.45 433.5 480.35 433.5 476.7 433.5 470.25 438.8 470.25 441.35 470.25 442.75 471.85 444.1 473.4 444.1 476.85
L 444.1 480.35 454.05 480.35 454.05 477.5
Q 454.05 469.35 450.2 465 446.3 460.65 438.7 460.65
M 558.65 464.95
Q 554.65 460.65 547.05 460.65 539.5 460.65 535.5 464.95 531.55 469.25 531.55 477.15
L 531.55 513.25
Q 531.55 521.1 535.5 525.45 539.5 529.75 547.05 529.75 554.65 529.75 558.65 525.45 562.6 521.1 562.6 513.25
L 562.6 503.7 552.65 503.7 552.65 514.05
Q 552.65 520.2 547.4 520.2 542.1 520.2 542.1 514.05
L 542.1 476.5
Q 542.1 470.25 547.4 470.25 552.65 470.25 552.65 476.5
L 552.65 484.25 562.6 484.25 562.6 477.15
Q 562.6 469.25 558.65 464.95
M 507.9 488.95
L 507.9 471.2 526.1 471.2 526.1 461.6 497.35 461.6 497.35 528.8 526.1 528.8 526.1 519.2 507.9 519.2 507.9 498.55 522.4 498.55 522.4 488.95 507.9 488.95
M 491.2 489.5
Q 491.6 487.362890625 491.6 484.85
L 491.6 478.2
Q 491.6 470.05 487.65 465.85 483.75 461.6 475.85 461.6
L 460.3 461.6 460.3 528.8 470.85 528.8 470.85 501.45 475.85 501.45
Q 483.0189453125 501.45 486.9 497.95 487.2890625 497.593359375 487.65 497.2 488.44453125 496.355078125 489.05 495.35 489.5521484375 494.5953125 489.95 493.75 490.2958984375 492.9640625 490.55 492.1 490.9826171875 490.8783203125 491.2 489.5
M 479.75 472.65
Q 481 474.1 481 477.5
L 481 485.5
Q 481 488.04375 480.3 489.5 480.0783203125 490.019140625 479.75 490.4 478.45 491.85 475.85 491.85
L 470.85 491.85 470.85 471.2 475.85 471.2
Q 478.45 471.2 479.75 472.65
M 628.25 494.45
Q 629.0064453125 494.1453125 629.65 493.75 630.8533203125 493.062109375 631.75 492.1 632.6685546875 491.1666015625 633.3 489.95 633.4580078125 489.7373046875 633.55 489.5 635.2 486.2396484375 635.2 481.2
L 635.2 477.05
Q 635.2 469.2 631.45 465.4 627.7 461.6 619.55 461.6
L 603.9 461.6 603.9 528.8 614.45 528.8 614.45 500 618.1 500
Q 621.75 500 623.25 501.85 624.7 503.65 624.7 508.25
L 624.7 520.55
Q 624.7 524.3 624.9 525.7 625.1 527.15 625.7 528.8
L 636.4 528.8
Q 635.65 527.05 635.5 525.3 635.3 523.5 635.3 520.65
L 635.3 508.85
Q 635.3 502.9 633.7 499.3 633.37265625 498.573828125 632.95 497.95 631.8251953125 496.284375 630 495.35 629.208984375 494.9240234375 628.25 494.65
L 628.25 494.45
M 619.25 471.2
Q 622.05 471.2 623.35 472.85 624.6 474.45 624.6 478.15
L 624.6 483.3
Q 624.6 487.15 623.05 488.75 622.631640625 489.1814453125 622.1 489.5 620.626171875 490.4 618.3 490.4
L 614.45 490.4 614.45 471.2 619.25 471.2
M 587.75 471.2
L 598.8 471.2 598.8 461.6 566.15 461.6 566.15 471.2 577.2 471.2 577.2 528.8 587.75 528.8 587.75 471.2 Z"/>

<path fill="#434343" stroke="none" d="
M 357.25 424.85
L 346.7 424.85 346.7 513.45 357.25 513.45 357.25 424.85
M 338.8 424.85
L 328.25 424.85 328.25 513.45 338.8 513.45 338.8 424.85
M 401.55 424.85
L 399 424.85 399 453.7 401.55 453.7 401.55 424.85
M 394.15 424.85
L 383.6 424.85 383.6 453.7 394.15 453.7 394.15 424.85
M 375.7 424.85
L 365.15 424.85 365.15 453.7 375.7 453.7 375.7 424.85
M 443.1 453.7
L 453.65 453.7 453.65 424.85 443.1 424.85 443.1 453.7
M 435.2 424.85
L 424.65 424.85 424.65 453.7 435.2 453.7 435.2 424.85
M 416.75 424.85
L 406.2 424.85 406.2 453.7 416.75 453.7 416.75 424.85
M 472.1 424.85
L 461.55 424.85 461.55 453.7 472.1 453.7 472.1 424.85
M 516.9 424.85
L 516.9 453.7 527.45 453.7 527.45 424.85 516.9 424.85
M 490.55 453.7
L 490.55 424.85 480 424.85 480 453.7 490.55 453.7
M 509 424.85
L 498.45 424.85 498.45 453.7 509 453.7 509 424.85
M 562.25 424.85
L 553.8 424.85 553.8 453.7 562.25 453.7 562.25 424.85
M 545.9 424.85
L 535.35 424.85 535.35 453.7 545.9 453.7 545.9 424.85
M 603.9 424.85
L 603.9 453.7 614.45 453.7 614.45 424.85 603.9 424.85
M 569.45 453.7
L 569.45 424.85 566.9 424.85 566.9 453.7 569.45 453.7
M 598.8 424.85
L 588.25 424.85 588.25 453.7 598.8 453.7 598.8 424.85
M 583.85 424.85
L 581.3 424.85 581.3 453.7 583.85 453.7 583.85 424.85
M 576.65 424.85
L 574.1 424.85 574.1 453.7 576.65 453.7 576.65 424.85
M 632.9 424.85
L 622.35 424.85 622.35 453.7 632.9 453.7 632.9 424.85 Z"/>
</g>
</defs>

<g transform="matrix( 3.24517822265625, 0, 0, 3.2449951171875, -1065.25,-1378.35) ">
<use xlink:href="#Layer0_0_FILL"/>
</g>
</svg>
