
<svg xmlns="http://www.w3.org/2000/svg" version="1.1" xmlns:xlink="http://www.w3.org/1999/xlink" preserveAspectRatio="none" x="0px" y="0px" width="1000px" height="407px" viewBox="0 0 1000 407">
<defs>
<linearGradient id="Gradient_1" gradientUnits="userSpaceOnUse" x1="500.0375" y1="6.374999999999986" x2="499.9625" y2="195.72500000000002" spreadMethod="pad">
<stop  offset="0%" stop-color="#4E3CAA"/>

<stop  offset="100%" stop-color="#794EE3"/>
</linearGradient>

<g id="Layer0_0_FILL">
<path fill="#2E2E30" stroke="none" d="
M 319.2 221.65
Q 310.5 216.4 297.75 212.55 284.9 208.7 272.1 208.7 257.45 208.7 246.9 214.05 236.25 219.25 230.75 228.1 225.15 236.75 225.15 246.95 225.15 259.85 230.55 268.25 235.8 276.6 245.85 281.65 255.8 286.75 271.9 290.85 284.3 293.95 290 297.35 295.65 300.7 295.65 306 295.65 311.6 290.15 313.95 284.65 316.3 273.85 316.3 256.55 316.3 235.55 305.4 233.7 304.55 232.2 304.55 229.7 304.55 228.05 307.25
L 218.45 324.05
Q 217.4 325.55 217.4 327.2 217.4 329.75 220.45 331.4 230.4 337.05 244.6 341.85 258.75 346.5 273.85 346.5 298.35 346.5 312.5 336.45 326.7 326.5 326.7 307.5 326.7 294.85 321.3 286.3 315.8 277.85 305.7 272.4 295.4 266.9 279.7 263 269.65 260.45 264.6 258.55 259.55 256.45 257.8 254.35 255.8 252.1 255.8 249.05 255.8 244.25 260.15 241.55 264.35 238.65 272.1 238.65 280.3 238.65 289.35 241.55 298.55 244.3 305.8 248.25 307 248.5 307.45 248.5 309.95 248.5 311.8 245.55
L 321.5 229.3
Q 322.55 227.65 322.55 226.15 322.55 223.45 319.2 221.65
M 32.4 216.9
Q 32.4 214.9 31.35 213.85 30.2 212.8 28.2 212.8
L 4.05 212.8
Q 0 212.8 0 216.9
L 0 338.45
Q 0 342.5 4.05 342.5
L 28.2 342.5
Q 30.2 342.5 31.35 341.45 32.4 340.4 32.4 338.45
L 32.4 216.9
M 130.45 239.85
Q 138.05 239.85 144.6 243.45 151.05 247 155 253.5 158.65 259.75 158.65 267.35
L 158.65 337.95
Q 158.65 339.95 159.9 341.1 160.95 342.15 163 342.15
L 186.95 342.15
Q 189 342.15 190.15 341.1 191.2 339.95 191.2 337.95
L 191.2 267.55
Q 191.2 249.75 184.9 236.45 178.75 223.2 166.85 215.95 155.1 208.8 139.1 208.8 126.9 208.8 116.25 214.2 105.5 219.55 98.35 228.95
L 95.85 215.5
Q 95.2 212.8 91.65 212.8
L 72.7 212.8
Q 70.6 212.8 69.55 214.05 68.35 215.1 68.35 217
L 68.35 338.1
Q 68.35 342.5 72.55 342.5
L 96.45 342.5
Q 100.65 342.5 100.65 338.1
L 100.65 269.45
Q 100.65 261.05 104.65 254.35 108.65 247.45 115.55 243.8 122.35 239.85 130.45 239.85
M 634.75 243.45
Q 626.45 227.65 611.35 218.4 596.25 209.15 577.6 209.15 558.65 209.15 542.95 218.4 527.25 227.5 518.35 243.2 509.2 258.8 509.2 277.65 509.2 296.3 518.6 312.1 527.85 327.85 543.8 337.05 559.7 346.3 578.65 346.3 602.8 346.3 622.9 329.15 624.35 327.85 624.35 326 624.35 324.5 623.4 323.05 621.2 319.8 617.65 315
L 612.4 307.65
Q 611 305.85 609.45 305.85 608.2 305.85 606.55 306.8 591.9 316.9 579.05 316.9 567.1 316.9 557.8 309.75 548.2 302.45 544.15 291.1
L 629 291.1
Q 634.5 291.1 638.5 287.7 642.5 284.1 642.7 277.85 643.05 259.15 634.75 243.45
M 598.1 248
Q 606.4 254.95 609.1 266.55
L 542.95 266.55
Q 545.85 254.95 555.15 248 564.6 240.75 577.35 240.75 589.7 240.75 598.1 248
M 485.2 242.55
Q 477.15 226.85 463 217.95 448.8 209 431 209 416.7 209 404.9 215.25 392.95 221.35 385 232.7
L 382.3 215.45
Q 381.85 213 378.9 213
L 359.2 213
Q 357.45 213 356.4 214.2 355.15 215.45 355.15 217.35
L 355.15 402.15
Q 355.15 404.1 356.4 405.3 357.45 406.55 359.2 406.55
L 383.25 406.55
Q 385.35 406.55 386.5 405.5 387.55 404.25 387.55 402.15
L 387.3 325.55
Q 395.3 335.6 406.55 341 417.75 346.3 431.15 346.3 448.8 346.3 463 337.4 477.15 328.45 485.2 312.75 493.1 297.1 493.1 277.65 493.1 258.3 485.2 242.55
M 425.05 240.3
Q 435.1 240.3 443.55 245.35 451.95 250.35 456.8 259 461.8 267.55 461.8 277.85 461.8 287.75 456.8 296.3 451.95 304.9 443.55 309.75 435.2 314.65 425.25 314.65 414.95 314.65 406.2 309.75 397.55 304.9 392.7 296.5 387.55 287.95 387.55 277.85 387.55 267.55 392.7 259 397.55 250.35 406.2 245.35 414.75 240.3 425.05 240.3
M 775.4 228.95
Q 775.4 227.3 773.75 225.8 764.5 217.95 752.7 213.6 740.95 209.15 728.1 209.15 709.25 209.15 693.45 218.4 677.5 227.5 668.15 243.35 658.9 259 658.9 277.65 658.9 296.3 668.35 312.1 677.6 327.85 693.55 337.05 709.45 346.3 728.2 346.3 740.95 346.3 752.55 341.85 764.05 337.4 773.5 329.3 775.4 327.85 775.4 325.9 775.4 324.4 774.35 323.2
L 762.3 305.4
Q 761.1 303.85 759 303.85 757.8 303.85 756.3 304.55 744.1 314.8 728.7 314.8 718.7 314.8 710.3 309.75 701.95 304.7 697.05 296.15 692.05 287.5 692.05 277.5 692.05 267.55 697.05 259 701.85 250.5 710.15 245.55 718.5 240.65 728.55 240.65 743.3 240.65 756.45 251.2 757.8 252.1 759.2 252.1 761.1 252.1 762.4 250.15
L 774.35 231.95
Q 775.4 230.45 775.4 228.95
M 835.55 161.75
L 811.2 171.35
Q 807.8 172.5 807.8 176.1
L 807.8 213 793.1 213
Q 789.1 213 789.1 217
L 789.1 239.85
Q 789.1 243.9 793.1 243.9
L 807.85 243.9 807.85 338.55
Q 807.85 340.5 808.9 341.55 809.95 342.55 811.9 342.55
L 836.4 342.55
Q 840.35 342.55 840.35 338.55
L 840.35 243.9 871.2 243.9
Q 875.25 243.9 875.25 239.85
L 875.25 217
Q 875.25 213 871.2 213
L 840.35 213 840.35 165.35
Q 840.35 163.6 839.55 162.55 838.65 161.5 837.2 161.5 836.75 161.5 835.55 161.75
M 998.55 220.95
Q 992.7 215.1 984.15 211.95 975.5 208.8 966 208.8 954.3 208.8 943.75 214.65 932.9 220.3 926.1 230.2
L 923.4 215.5
Q 922.8 212.8 919.2 212.8
L 900.3 212.8
Q 898.2 212.8 897.15 214.05 895.9 215.1 895.9 217
L 895.9 338.1
Q 895.9 342.5 900.1 342.5
L 924 342.5
Q 928.2 342.5 928.2 338.1
L 928.2 269.25
Q 928.2 260.65 932.65 253.3 937 246 944.6 241.8 952 237.5 961 237.5 966.25 237.5 971.75 239.15 977.35 240.75 981.5 244.05
L 982.55 244.95
Q 983.25 245.7 984.55 245.7 986.85 245.7 987.9 243.8
L 999.05 226.45
Q 1000 225.1 1000 223.7 1000 222 998.55 220.95 Z"/>

<path fill="url(#Gradient_1)" stroke="none" d="
M 494.1 169.4
L 494.1 151.3
Q 493.4 134.9 483.8 129.4
L 407.8 85.5
Q 398 80.8 397.3 94.6 395.15 123.85 389.8 132.2 419.5181640625 145.187109375 448.05 165.7 476.5818359375 186.262890625 497.65 196.45 495.05 192.4 494.1 169.4
M 602.75 92.85
Q 601.95 79.85 591.65 85.85
L 516.1 129.5
Q 506.2 136.15 506.05 152.35
L 506.05 169.4
Q 505.2 188.9 503.25 194.75 553.85 163.846484375 573.45 153.75 593.05 143.701171875 611.3 133.1 611.55 133.15 611.8 133.1 610.75 133.25 610.05 131.85 605.8 123.4 602.75 92.85
M 504.9 16.05
Q 499.85 13.55 495.15 16.05
L 495.05 16.15 403.25 69.1 500 125.05 596.9 69.1 504.9 16.05 Z"/>

<path fill="#FFFFFF" stroke="none" d="
M 591.65 85.85
Q 601.95 79.85 602.75 92.85 605.8 123.4 610.05 131.85 610.75 133.25 611.8 133.1
L 612.75 132.65
Q 613.1 132.3 613.65 131.75 613.9 131.4 614.25 130.9 614.6 129.95 614.7 128.8
L 614.7 69.05
Q 614.7 68.5 614.6 68 614.4 66.95 613.8 66
L 613.65 65.8
Q 613.3 65.1 612.7 64.65 612.4 64.5 612.25 64.3 612 64.15 611.7 63.95
L 503 1.25
Q 501.6 0.45 500 0.45 498.45 0.45 497.05 1.25
L 388.85 63.7
Q 388.6 63.9 388.35 63.95
L 387.9 64.25
Q 387.3 64.65 386.95 65.2 385.9 66.35 385.55 67.7 385.45 68.15 385.35 68.6 385.35 68.95 385.35 69.3 385.35 69.45 385.35 69.65
L 385.35 128.7
Q 385.45 129.95 385.95 131 387.8 133.95 389.8 132.2 395.15 123.85 397.3 94.6 398 80.8 407.8 85.5
L 483.8 129.4
Q 493.4 134.9 494.1 151.3
L 494.1 169.4
Q 495.05 192.4 497.65 196.45 497.95 196.85 498.3 197.05
L 498.45 197.15
Q 498.55 197.15 498.65 197.15
L 499.25 197.3 500 197.3
Q 500.9 197.3 501.7 197.15
L 501.75 197.15
Q 502.4 196.8 503 195.45 503.15 195.15 503.25 194.75 505.2 188.9 506.05 169.4
L 506.05 152.35
Q 506.2 136.15 516.1 129.5
L 591.65 85.85
M 495.15 16.05
Q 499.85 13.55 504.9 16.05
L 596.9 69.1 500 125.05 403.25 69.1 495.05 16.15 495.15 16.05 Z"/>
</g>
</defs>

<g transform="matrix( 1, 0, 0, 1, 0,0) ">
<use xlink:href="#Layer0_0_FILL"/>
</g>
</svg>
