
<svg xmlns="http://www.w3.org/2000/svg" version="1.1" xmlns:xlink="http://www.w3.org/1999/xlink" preserveAspectRatio="none" x="0px" y="0px" width="1000px" height="377px" viewBox="0 0 1000 377">
<defs>
<linearGradient id="Gradient_1" gradientUnits="userSpaceOnUse" x1="500.0375" y1="6.374999999999986" x2="499.9625" y2="195.72500000000002" spreadMethod="pad">
<stop  offset="0%" stop-color="#4E3CAA"/>

<stop  offset="100%" stop-color="#794EE3"/>
</linearGradient>

<g id="Layer0_0_FILL">
<path fill="url(#Gradient_1)" stroke="none" d="
M 602.75 92.85
Q 601.95 79.85 591.65 85.85
L 516.1 129.5
Q 506.2 136.15 506.05 152.35
L 506.05 169.4
Q 505.2 188.9 503.25 194.75 553.85 163.846484375 573.45 153.75 593.05 143.701171875 611.3 133.1 611.55 133.15 611.8 133.1 610.75 133.25 610.05 131.85 605.8 123.4 602.75 92.85
M 495.15 16.05
L 495.05 16.15 403.25 69.1 500 125.05 596.9 69.1 504.9 16.05
Q 499.85 13.55 495.15 16.05
M 494.1 169.4
L 494.1 151.3
Q 493.4 134.9 483.8 129.4
L 407.8 85.5
Q 398 80.8 397.3 94.6 395.15 123.85 389.8 132.2 419.5181640625 145.187109375 448.05 165.7 476.5818359375 186.262890625 497.65 196.45 495.05 192.4 494.1 169.4 Z"/>

<path fill="#FFFFFF" stroke="none" d="
M 591.65 85.85
Q 601.95 79.85 602.75 92.85 605.8 123.4 610.05 131.85 610.75 133.25 611.8 133.1 612.275 132.875 612.75 132.65 613.1 132.3 613.65 131.75 613.9 131.4 614.25 130.9 614.6 129.95 614.7 128.8
L 614.7 69.05
Q 614.7 68.5 614.6 68 614.4 66.95 613.8 66
L 613.65 65.8
Q 613.3 65.1 612.7 64.65 612.4 64.5 612.25 64.3 612 64.15 611.7 63.95
L 503 1.25
Q 501.6 0.45 500 0.45 498.45 0.45 497.05 1.25
L 388.85 63.7
Q 388.6 63.9 388.35 63.95
L 387.9 64.25
Q 387.3 64.65 386.95 65.2 385.9 66.35 385.55 67.7 385.45 68.15 385.35 68.6 385.35 68.95 385.35 69.3 385.35 69.45 385.35 69.65
L 385.35 128.7
Q 385.45 129.95 385.95 131 387.8 133.95 389.8 132.2 395.15 123.85 397.3 94.6 398 80.8 407.8 85.5
L 483.8 129.4
Q 493.4 134.9 494.1 151.3
L 494.1 169.4
Q 495.05 192.4 497.65 196.45 497.95 196.85 498.3 197.05
L 498.45 197.15
Q 498.55 197.15 498.65 197.15
L 499.25 197.3 500 197.3
Q 500.9 197.3 501.7 197.15
L 501.75 197.15
Q 502.4 196.8 503 195.45 503.15 195.15 503.25 194.75 505.2 188.9 506.05 169.4
L 506.05 152.35
Q 506.2 136.15 516.1 129.5
L 591.65 85.85
M 495.05 16.15
L 495.15 16.05
Q 499.85 13.55 504.9 16.05
L 596.9 69.1 500 125.05 403.25 69.1 495.05 16.15
M 69.55 184.05
Q 68.35 185.1 68.35 187
L 68.35 308.1
Q 68.35 312.5 72.55 312.5
L 96.45 312.5
Q 100.65 312.5 100.65 308.1
L 100.65 239.45
Q 100.65 231.05 104.65 224.35 108.65 217.45 115.55 213.8 122.35 209.85 130.45 209.85 138.05 209.85 144.6 213.45 151.05 217 155 223.5 158.65 229.75 158.65 237.35
L 158.65 307.95
Q 158.65 309.95 159.9 311.1 160.95 312.15 163 312.15
L 186.95 312.15
Q 189 312.15 190.15 311.1 191.2 309.95 191.2 307.95
L 191.2 237.55
Q 191.2 219.75 184.9 206.45 178.75 193.2 166.85 185.95 155.1 178.8 139.1 178.8 126.9 178.8 116.25 184.2 105.5 189.55 98.35 198.95
L 95.85 185.5
Q 95.2 182.8 91.65 182.8
L 72.7 182.8
Q 70.6 182.8 69.55 184.05
M 31.35 183.85
Q 30.2 182.8 28.2 182.8
L 4.05 182.8
Q 0 182.8 0 186.9
L 0 308.45
Q 0 312.5 4.05 312.5
L 28.2 312.5
Q 30.2 312.5 31.35 311.45 32.4 310.4 32.4 308.45
L 32.4 186.9
Q 32.4 184.9 31.35 183.85
M 272.1 178.7
Q 257.45 178.7 246.9 184.05 236.25 189.25 230.75 198.1 225.15 206.75 225.15 216.95 225.15 229.85 230.55 238.25 235.8 246.6 245.85 251.65 255.8 256.75 271.9 260.85 284.3 263.95 290 267.35 295.65 270.7 295.65 276 295.65 281.6 290.15 283.95 284.65 286.3 273.85 286.3 256.55 286.3 235.55 275.4 233.7 274.55 232.2 274.55 229.7 274.55 228.05 277.25
L 218.45 294.05
Q 217.4 295.55 217.4 297.2 217.4 299.75 220.45 301.4 230.4 307.05 244.6 311.85 258.75 316.5 273.85 316.5 298.35 316.5 312.5 306.45 326.7 296.5 326.7 277.5 326.7 264.85 321.3 256.3 315.8 247.85 305.7 242.4 295.4 236.9 279.7 233 269.65 230.45 264.6 228.55 259.55 226.45 257.8 224.35 255.8 222.1 255.8 219.05 255.8 214.25 260.15 211.55 264.35 208.65 272.1 208.65 280.3 208.65 289.35 211.55 298.55 214.3 305.8 218.25 307 218.5 307.45 218.5 309.95 218.5 311.8 215.55
L 321.5 199.3
Q 322.55 197.65 322.55 196.15 322.55 193.45 319.2 191.65 310.5 186.4 297.75 182.55 284.9 178.7 272.1 178.7
M 356.4 184.2
Q 355.15 185.45 355.15 187.35
L 355.15 372.15
Q 355.15 374.1 356.4 375.3 357.45 376.55 359.2 376.55
L 383.25 376.55
Q 385.35 376.55 386.5 375.5 387.55 374.25 387.55 372.15
L 387.3 295.55
Q 395.3 305.6 406.55 311 417.75 316.3 431.15 316.3 448.8 316.3 463 307.4 477.15 298.45 485.2 282.75 493.1 267.1 493.1 247.65 493.1 228.3 485.2 212.55 477.15 196.85 463 187.95 448.8 179 431 179 416.7 179 404.9 185.25 392.95 191.35 385 202.7
L 382.3 185.45
Q 381.85 183 378.9 183
L 359.2 183
Q 357.45 183 356.4 184.2
M 425.05 210.3
Q 435.1 210.3 443.55 215.35 451.95 220.35 456.8 229 461.8 237.55 461.8 247.85 461.8 257.75 456.8 266.3 451.95 274.9 443.55 279.75 435.2 284.65 425.25 284.65 414.95 284.65 406.2 279.75 397.55 274.9 392.7 266.5 387.55 257.95 387.55 247.85 387.55 237.55 392.7 229 397.55 220.35 406.2 215.35 414.75 210.3 425.05 210.3
M 611.35 188.4
Q 596.25 179.15 577.6 179.15 558.65 179.15 542.95 188.4 527.25 197.5 518.35 213.2 509.2 228.8 509.2 247.65 509.2 266.3 518.6 282.1 527.85 297.85 543.8 307.05 559.7 316.3 578.65 316.3 602.8 316.3 622.9 299.15 624.35 297.85 624.35 296 624.35 294.5 623.4 293.05 621.2 289.8 617.65 285
L 612.4 277.65
Q 611 275.85 609.45 275.85 608.2 275.85 606.55 276.8 591.9 286.9 579.05 286.9 567.1 286.9 557.8 279.75 548.2 272.45 544.15 261.1
L 629 261.1
Q 634.5 261.1 638.5 257.7 642.5 254.1 642.7 247.85 643.05 229.15 634.75 213.45 626.45 197.65 611.35 188.4
M 577.35 210.75
Q 589.7 210.75 598.1 218 606.4 224.95 609.1 236.55
L 542.95 236.55
Q 545.85 224.95 555.15 218 564.6 210.75 577.35 210.75
M 728.1 179.15
Q 709.25 179.15 693.45 188.4 677.5 197.5 668.15 213.35 658.9 229 658.9 247.65 658.9 266.3 668.35 282.1 677.6 297.85 693.55 307.05 709.45 316.3 728.2 316.3 740.95 316.3 752.55 311.85 764.05 307.4 773.5 299.3 775.4 297.85 775.4 295.9 775.4 294.4 774.35 293.2
L 762.3 275.4
Q 761.1 273.85 759 273.85 757.8 273.85 756.3 274.55 744.1 284.8 728.7 284.8 718.7 284.8 710.3 279.75 701.95 274.7 697.05 266.15 692.05 257.5 692.05 247.5 692.05 237.55 697.05 229 701.85 220.5 710.15 215.55 718.5 210.65 728.55 210.65 743.3 210.65 756.45 221.2 757.8 222.1 759.2 222.1 761.1 222.1 762.4 220.15
L 774.35 201.95
Q 775.4 200.45 775.4 198.95 775.4 197.3 773.75 195.8 764.5 187.95 752.7 183.6 740.95 179.15 728.1 179.15
M 837.2 131.5
Q 836.75 131.5 835.55 131.75
L 811.2 141.35
Q 807.8 142.5 807.8 146.1
L 807.8 183 793.1 183
Q 789.1 183 789.1 187
L 789.1 209.85
Q 789.1 213.9 793.1 213.9
L 807.85 213.9 807.85 308.55
Q 807.85 310.5 808.9 311.55 809.95 312.55 811.9 312.55
L 836.4 312.55
Q 840.35 312.55 840.35 308.55
L 840.35 213.9 871.2 213.9
Q 875.25 213.9 875.25 209.85
L 875.25 187
Q 875.25 183 871.2 183
L 840.35 183 840.35 135.35
Q 840.35 133.6 839.55 132.55 838.65 131.5 837.2 131.5
M 1000 193.7
Q 1000 192 998.55 190.95 992.7 185.1 984.15 181.95 975.5 178.8 966 178.8 954.3 178.8 943.75 184.65 932.9 190.3 926.1 200.2
L 923.4 185.5
Q 922.8 182.8 919.2 182.8
L 900.3 182.8
Q 898.2 182.8 897.15 184.05 895.9 185.1 895.9 187
L 895.9 308.1
Q 895.9 312.5 900.1 312.5
L 924 312.5
Q 928.2 312.5 928.2 308.1
L 928.2 239.25
Q 928.2 230.65 932.65 223.3 937 216 944.6 211.8 952 207.5 961 207.5 966.25 207.5 971.75 209.15 977.35 210.75 981.5 214.05
L 982.55 214.95
Q 983.25 215.7 984.55 215.7 986.85 215.7 987.9 213.8
L 999.05 196.45
Q 1000 195.1 1000 193.7 Z"/>
</g>
</defs>

<g transform="matrix( 1, 0, 0, 1, 0,0) ">
<use xlink:href="#Layer0_0_FILL"/>
</g>
</svg>
